# xmcd CD database file
#
# Track frame offsets:
#	150
#	12719
#	21948
#	32774
#	48552
#	61599
#	74408
#	92094
#	101393
#	111653
#	142037
#	166607
#	183154
#	193909
#	235968
#	250064
#	267431
#
# Disc length: 3785 seconds
#
# Revision: 0
# Processed by: cddbd v1.5.1PL0 Copyright (c) Steve Scherf et al.
# Submitted via: CDex 1.50
#
DISCID=f10ec711
DTITLE=Schabuwan - Sweeping Up The Jokers
DYEAR=2004
DGENRE=Country
TTITLE0=Crazy
TTITLE1=Blue Spirit Blues
TTITLE2=Why Don't You Love Me Like You Used To Do?
TTITLE3=One More Cup Of Coffee
TTITLE4=Moonlight Shadow
TTITLE5=The Winner Takes It All
TTITLE6=The Stranger Song
TTITLE7=Jambalaya
TTITLE8=One Of Us Cannot Be Wrong
TTITLE9=The Master Song
TTITLE10=Abandoned Love
TTITLE11=Blue Spirit Blues (II)
TTITLE12=Why Don'T You Love Me Like You Used To Do? (II)
TTITLE13=Black Diamond Bay
TTITLE14=You Belong To Me
TTITLE15=The Sisters Of Mercy
TTITLE16=I Don'T Believe You (She Acts Like We Never Have Met)
EXTD=YEAR: 2004
EXTT0=
EXTT1=
EXTT2=
EXTT3=
EXTT4=
EXTT5=
EXTT6=
EXTT7=
EXTT8=
EXTT9=
EXTT10=
EXTT11=
EXTT12=
EXTT13=
EXTT14=
EXTT15=
EXTT16=
PLAYORDER=
